<svg width="32" height="32" viewBox="0 0 32 32" fill="none" xmlns="http://www.w3.org/2000/svg">
<path d="M26.4095 15.141C29.4959 15.141 32 12.6369 32 9.5505V3.51738C32 1.57816 30.4277 0 28.4826 0H22.4495C19.3631 0 16.859 2.50409 16.859 5.59054V6.86588C16.6377 7.76269 15.3623 7.76269 15.141 6.86588V5.59054C15.141 2.50409 12.6369 0 9.5505 0H3.51738C1.57234 0 0 1.57234 0 3.51738V9.5505C0 12.6369 2.50409 15.141 5.59054 15.141H6.86588C7.76269 15.3623 7.76269 16.6377 6.86588 16.859H5.59054C2.50409 16.859 0 19.3631 0 22.4495V28.4826C0 30.4218 1.57234 32 3.51738 32H9.5505C12.6369 32 15.141 29.4959 15.141 26.4095V25.1341C15.3623 24.2373 16.6377 24.2373 16.859 25.1341V26.4095C16.859 29.4959 19.3631 32 22.4495 32H28.4826C30.4218 32 32 30.4277 32 28.4826V22.4495C32 19.3631 29.4959 16.859 26.4095 16.859H23.1425V15.141H26.4095Z" fill="#225BFF" style="fill:#225BFF;fill:color(display-p3 0.1333 0.3569 1.0000);fill-opacity:1;"/>
</svg>
